<svg id="svg" version="1.1" xmlns="http://www.w3.org/2000/svg" xmlns:xlink="http://www.w3.org/1999/xlink" width="400" height="400" viewBox="0, 0, 400,400"><g id="svgg"><path id="path0" d="M99.600 91.600 L 99.600 100.400 111.798 100.400 L 123.996 100.400 124.098 138.100 L 124.200 175.800 135.298 175.906 L 146.396 176.013 146.498 138.306 L 146.600 100.600 158.900 100.494 L 171.200 100.388 171.200 91.594 L 171.200 82.800 135.400 82.800 L 99.600 82.800 99.600 91.600 M216.400 83.412 C 216.400 83.649,218.079 87.707,219.241 90.278 C 219.659 91.201,220.000 92.051,220.000 92.166 C 220.000 92.282,220.450 93.360,221.000 94.563 C 221.550 95.765,222.000 96.845,222.000 96.963 C 222.000 97.080,222.460 98.217,223.023 99.488 C 224.000 101.696,224.334 102.476,225.173 104.500 C 225.378 104.995,225.807 106.030,226.126 106.800 C 226.446 107.570,227.065 109.010,227.502 110.000 C 227.939 110.990,229.689 115.130,231.390 119.200 C 233.091 123.270,234.834 127.410,235.263 128.400 C 236.239 130.651,236.610 131.531,238.800 136.800 C 239.486 138.450,240.216 140.205,240.424 140.700 C 240.631 141.195,240.968 142.005,241.173 142.500 C 241.378 142.995,241.807 144.030,242.126 144.800 C 242.446 145.570,243.099 147.077,243.579 148.150 C 246.350 154.346,246.408 154.754,244.965 157.926 C 244.396 159.177,243.689 160.740,243.394 161.400 C 243.099 162.060,242.198 164.040,241.393 165.800 C 240.588 167.560,239.692 169.540,239.403 170.200 C 239.115 170.860,238.389 172.469,237.791 173.777 C 237.193 175.084,236.116 177.514,235.398 179.177 C 233.983 182.452,232.101 186.606,230.567 189.840 C 230.035 190.962,229.600 191.997,229.600 192.140 C 229.600 192.283,235.004 192.400,241.610 192.400 L 253.620 192.400 254.018 191.300 C 254.237 190.695,254.617 189.750,254.862 189.200 C 255.107 188.650,255.453 187.840,255.631 187.400 C 255.809 186.960,256.415 185.560,256.977 184.288 C 257.540 183.017,258.000 181.880,258.000 181.763 C 258.000 181.645,258.442 180.583,258.982 179.403 C 259.522 178.222,260.802 175.219,261.828 172.728 C 262.854 170.238,264.050 167.390,264.486 166.400 C 264.923 165.410,265.432 164.240,265.618 163.800 C 265.804 163.360,266.307 162.190,266.735 161.200 C 267.163 160.210,268.272 157.600,269.200 155.400 C 270.821 151.557,271.849 149.170,272.991 146.600 C 273.284 145.940,274.916 142.070,276.616 138.000 C 278.317 133.930,280.224 129.470,280.854 128.090 C 281.484 126.709,282.000 125.477,282.000 125.350 C 282.000 125.106,283.047 122.624,283.599 121.561 C 283.782 121.209,284.593 119.319,285.403 117.361 C 286.213 115.402,287.228 112.990,287.659 112.000 C 288.091 111.010,288.596 109.840,288.781 109.400 C 288.967 108.960,289.394 107.970,289.730 107.200 C 290.066 106.430,292.082 101.660,294.210 96.600 C 296.338 91.540,298.421 86.645,298.840 85.722 C 299.258 84.799,299.600 83.854,299.600 83.622 C 299.600 83.335,295.779 83.200,287.698 83.200 L 275.795 83.200 275.340 84.300 C 275.090 84.905,274.400 86.750,273.807 88.400 C 273.214 90.050,272.115 93.029,271.365 95.020 C 270.614 97.011,270.000 98.784,270.000 98.959 C 270.000 99.135,269.747 99.846,269.438 100.540 C 269.128 101.233,268.569 102.700,268.195 103.800 C 267.821 104.900,267.369 106.160,267.191 106.600 C 266.735 107.722,263.077 117.632,261.876 121.000 C 258.651 130.035,258.476 130.302,257.596 127.511 C 257.299 126.570,256.934 125.620,256.786 125.400 C 256.638 125.180,255.935 123.290,255.225 121.200 C 254.515 119.110,253.784 117.040,253.600 116.600 C 253.416 116.160,252.340 113.280,251.207 110.200 C 250.075 107.120,248.980 104.287,248.774 103.905 C 248.568 103.523,248.400 103.011,248.400 102.766 C 248.400 102.521,248.147 101.754,247.839 101.060 C 247.530 100.367,246.793 98.450,246.200 96.800 C 245.260 94.181,242.167 85.891,241.388 83.900 C 241.122 83.220,216.400 82.737,216.400 83.412 M143.987 226.615 C 138.408 227.729,132.581 231.008,129.400 234.823 C 127.011 237.688,126.843 237.517,126.713 232.100 L 126.600 227.400 115.600 227.400 L 104.600 227.400 104.499 281.900 L 104.397 336.400 115.595 336.400 L 126.793 336.400 126.897 313.700 L 127.000 291.000 129.200 293.337 C 131.610 295.897,135.409 298.717,137.600 299.573 C 138.370 299.874,139.540 300.336,140.200 300.601 C 144.972 302.512,154.965 302.508,160.200 300.594 C 171.175 296.581,178.586 287.460,181.646 274.200 C 182.394 270.959,182.404 257.111,181.661 253.800 C 177.347 234.576,161.475 223.123,143.987 226.615 M149.200 246.625 C 166.511 253.538,161.602 282.833,143.138 282.796 C 123.959 282.757,120.260 251.491,138.800 246.124 C 141.215 245.425,146.878 245.698,149.200 246.625 " stroke="none" fill="#f9f9f9" fill-rule="evenodd"></path><path id="path1" d="M0.000 200.000 L 0.000 400.000 200.000 400.000 L 400.000 400.000 400.000 200.000 L 400.000 0.000 200.000 0.000 L 0.000 0.000 0.000 200.000 M171.907 91.500 L 172.015 100.800 159.609 100.800 L 147.204 100.800 147.102 138.500 L 147.000 176.200 135.400 176.200 L 123.800 176.200 123.698 138.500 L 123.596 100.800 111.198 100.800 L 98.800 100.800 98.800 91.667 C 98.800 86.643,98.921 82.412,99.069 82.265 C 99.217 82.117,115.642 82.042,135.569 82.098 L 171.800 82.200 171.907 91.500 M241.764 83.300 C 242.084 83.795,242.473 84.740,242.628 85.400 C 242.783 86.060,243.034 86.780,243.186 87.000 C 243.338 87.220,243.777 88.300,244.162 89.400 C 244.547 90.500,245.014 91.760,245.199 92.200 C 245.384 92.640,246.012 94.350,246.593 96.000 C 247.174 97.650,247.909 99.591,248.225 100.314 C 248.541 101.036,248.800 101.981,248.800 102.414 C 248.800 102.846,248.935 103.200,249.100 103.200 C 249.265 103.200,249.748 104.325,250.173 105.700 C 250.599 107.075,251.070 108.380,251.221 108.600 C 251.372 108.820,251.720 109.720,251.995 110.600 C 252.270 111.480,252.726 112.740,253.009 113.400 C 253.293 114.060,253.831 115.500,254.205 116.600 C 254.895 118.631,255.019 118.964,256.133 121.800 C 256.479 122.680,257.082 124.345,257.475 125.500 C 258.398 128.220,258.832 128.143,259.761 125.097 C 260.180 123.723,260.638 122.420,260.779 122.200 C 260.920 121.980,261.357 120.810,261.751 119.600 C 262.146 118.390,262.611 117.040,262.786 116.600 C 262.961 116.160,263.417 114.990,263.800 114.000 C 264.183 113.010,264.639 111.840,264.814 111.400 C 264.989 110.960,265.454 109.610,265.849 108.400 C 266.243 107.190,266.680 106.020,266.821 105.800 C 266.962 105.580,267.420 104.277,267.839 102.903 C 268.257 101.530,268.735 100.405,268.900 100.403 C 269.065 100.402,269.200 100.046,269.200 99.614 C 269.200 99.181,269.495 98.146,269.855 97.314 C 270.673 95.426,270.945 94.707,271.789 92.200 C 272.159 91.100,272.610 89.840,272.791 89.400 C 272.971 88.960,273.346 87.970,273.623 87.200 C 273.900 86.430,274.462 85.035,274.873 84.100 L 275.620 82.400 287.786 82.400 C 295.928 82.400,300.040 82.540,300.215 82.824 C 300.532 83.337,299.687 85.665,297.547 90.175 C 297.136 91.041,296.800 91.892,296.800 92.064 C 296.800 92.237,296.336 93.418,295.770 94.689 C 295.203 95.960,294.503 97.540,294.214 98.200 C 293.924 98.860,293.218 100.440,292.644 101.711 C 292.070 102.982,291.600 104.199,291.600 104.416 C 291.600 104.633,291.425 105.123,291.210 105.505 C 290.491 106.787,288.800 110.546,288.800 110.864 C 288.800 111.037,288.331 112.218,287.759 113.489 C 287.186 114.760,286.566 116.160,286.380 116.600 C 285.476 118.748,284.230 121.557,283.553 122.975 C 283.139 123.841,282.800 124.697,282.800 124.877 C 282.800 125.057,282.350 126.137,281.800 127.277 C 281.250 128.417,280.800 129.483,280.800 129.647 C 280.800 129.810,280.260 131.111,279.600 132.537 C 278.940 133.963,278.400 135.235,278.400 135.363 C 278.400 135.491,277.770 136.961,277.000 138.628 C 276.230 140.295,275.600 141.915,275.600 142.229 C 275.600 142.543,275.441 142.800,275.247 142.800 C 275.052 142.800,274.793 143.205,274.671 143.700 C 274.210 145.569,273.393 147.600,273.102 147.600 C 272.936 147.600,272.800 147.857,272.800 148.172 C 272.800 148.487,272.287 149.882,271.660 151.272 C 271.034 152.662,270.279 154.430,269.983 155.200 C 269.687 155.970,269.338 156.690,269.207 156.800 C 269.076 156.910,268.624 158.035,268.202 159.300 C 267.780 160.565,267.292 161.600,267.117 161.600 C 266.943 161.600,266.800 161.871,266.800 162.202 C 266.800 162.533,266.350 163.737,265.800 164.877 C 265.250 166.017,264.800 167.097,264.800 167.277 C 264.800 167.457,264.350 168.537,263.800 169.677 C 263.250 170.817,262.800 171.883,262.800 172.047 C 262.800 172.210,262.249 173.572,261.575 175.072 C 260.901 176.572,260.199 178.160,260.015 178.600 C 259.245 180.445,258.247 182.701,257.547 184.175 C 257.136 185.041,256.800 185.892,256.800 186.064 C 256.800 186.237,256.375 187.328,255.856 188.489 C 255.336 189.650,254.710 191.095,254.464 191.700 L 254.017 192.800 241.609 192.800 C 227.332 192.800,228.325 193.160,230.362 188.728 C 231.002 187.338,232.172 184.792,232.962 183.071 C 233.753 181.350,234.400 179.775,234.400 179.571 C 234.400 179.367,234.580 179.200,234.800 179.200 C 235.020 179.200,235.200 178.943,235.200 178.629 C 235.200 178.315,235.807 176.740,236.549 175.129 C 237.291 173.518,238.304 171.300,238.802 170.200 C 239.299 169.100,240.238 167.030,240.888 165.600 C 241.538 164.170,242.346 162.370,242.684 161.600 C 243.021 160.830,243.714 159.300,244.224 158.200 C 245.735 154.940,245.744 154.641,244.423 151.786 C 243.750 150.333,243.200 149.010,243.200 148.847 C 243.200 148.683,242.750 147.617,242.200 146.477 C 241.650 145.337,241.200 144.169,241.200 143.882 C 241.200 143.595,241.046 143.189,240.857 142.980 C 240.669 142.771,239.926 141.160,239.208 139.400 C 238.490 137.640,237.549 135.390,237.118 134.400 C 236.688 133.410,236.080 132.009,235.768 131.286 C 235.455 130.564,235.200 129.709,235.200 129.386 C 235.200 129.064,235.040 128.800,234.843 128.800 C 234.647 128.800,234.369 128.330,234.225 127.756 C 234.081 127.182,233.593 125.877,233.141 124.856 C 232.690 123.835,232.168 122.640,231.983 122.200 C 231.797 121.760,231.185 120.360,230.623 119.088 C 230.060 117.817,229.600 116.676,229.600 116.553 C 229.600 116.430,229.060 115.163,228.400 113.737 C 227.740 112.311,227.200 111.010,227.200 110.847 C 227.200 110.683,226.750 109.617,226.200 108.477 C 225.650 107.337,225.200 106.221,225.200 105.997 C 225.200 105.772,225.025 105.277,224.810 104.895 C 224.091 103.613,222.400 99.854,222.400 99.536 C 222.400 99.363,221.935 98.182,221.366 96.911 C 219.489 92.715,219.200 91.979,219.200 91.386 C 219.200 91.064,219.040 90.800,218.843 90.800 C 218.647 90.800,218.369 90.330,218.225 89.756 C 217.991 88.823,217.071 86.589,215.913 84.138 C 215.114 82.448,215.466 82.400,228.614 82.400 L 241.182 82.400 241.764 83.300 M156.200 226.073 C 157.740 226.321,159.171 226.675,159.380 226.862 C 159.589 227.048,160.025 227.200,160.350 227.200 C 161.210 227.200,167.600 230.403,167.600 230.834 C 167.600 231.035,167.844 231.200,168.142 231.200 C 170.607 231.200,179.067 242.636,180.570 248.000 C 180.724 248.550,181.008 249.360,181.201 249.800 C 183.484 255.002,183.440 275.617,181.141 278.180 C 180.953 278.389,180.800 278.877,180.800 279.265 C 180.800 283.466,171.671 295.601,166.546 298.212 C 165.696 298.645,164.910 299.095,164.800 299.211 C 164.690 299.327,163.790 299.754,162.800 300.159 C 161.810 300.564,160.640 301.049,160.200 301.236 C 155.203 303.363,144.833 303.179,139.000 300.860 C 134.700 299.151,128.400 294.553,128.400 293.125 C 128.400 292.946,128.220 292.800,128.000 292.800 C 127.738 292.800,127.600 300.386,127.600 314.757 C 127.600 334.410,127.534 336.740,126.967 336.957 C 126.619 337.091,121.309 337.200,115.166 337.200 L 103.997 337.200 104.099 281.900 L 104.200 226.600 115.800 226.600 L 127.400 226.600 127.514 231.171 L 127.628 235.741 129.314 233.960 C 131.398 231.758,135.601 228.791,138.000 227.827 C 138.990 227.430,140.160 226.956,140.600 226.776 C 141.431 226.435,145.964 225.675,148.400 225.469 C 150.199 225.317,152.689 225.510,156.200 226.073 M262.316 228.823 C 276.836 230.406,287.921 238.922,292.205 251.786 C 293.987 257.135,294.966 266.769,294.118 270.600 L 293.764 272.200 268.182 272.400 L 242.600 272.600 242.721 274.000 C 243.025 277.528,245.161 281.733,247.542 283.494 C 253.573 287.953,262.807 287.213,266.705 281.959 C 267.423 280.992,268.195 279.975,268.421 279.700 C 268.841 279.189,291.989 278.922,292.489 279.423 C 292.757 279.690,291.245 283.960,290.062 286.278 C 286.065 294.113,278.202 300.694,269.859 303.186 C 264.749 304.712,262.932 304.968,257.200 304.968 C 251.467 304.968,249.582 304.703,244.600 303.194 C 228.947 298.453,219.883 285.098,219.896 266.800 C 219.915 241.631,237.270 226.094,262.316 228.823 M140.200 246.453 C 136.773 247.075,130.800 250.834,130.800 252.369 C 130.800 252.606,130.632 252.800,130.427 252.800 C 130.222 252.800,129.928 253.205,129.773 253.700 C 129.619 254.195,129.368 254.690,129.217 254.800 C 127.716 255.891,127.046 266.789,128.234 270.789 C 131.657 282.316,145.714 285.867,154.500 277.425 C 155.105 276.843,155.600 276.229,155.600 276.059 C 155.600 275.890,155.928 275.399,156.328 274.969 C 160.861 270.104,159.975 257.078,154.726 251.410 C 153.476 250.059,151.766 248.605,150.926 248.177 C 150.087 247.750,149.310 247.295,149.200 247.167 C 148.981 246.911,143.563 245.973,142.723 246.045 C 142.435 246.069,141.300 246.253,140.200 246.453 M252.271 247.587 C 247.985 248.957,244.832 252.003,243.445 256.114 C 242.159 259.928,240.932 259.601,256.500 259.594 C 271.951 259.587,271.266 259.708,270.774 257.074 C 269.330 249.343,260.671 244.903,252.271 247.587 " stroke="none" fill="#343434" fill-rule="evenodd"></path><path id="path2" d="M98.980 82.507 C 98.872 82.788,98.836 87.064,98.900 92.009 L 99.016 101.000 99.108 91.700 L 99.200 82.400 135.393 82.400 L 171.585 82.400 171.704 91.600 L 171.823 100.800 171.811 91.500 L 171.800 82.200 135.488 82.098 C 106.311 82.016,99.138 82.096,98.980 82.507 M215.734 83.027 C 215.602 83.372,215.688 83.848,215.925 84.085 C 216.232 84.392,216.291 84.270,216.131 83.658 L 215.907 82.800 228.473 82.800 C 237.961 82.800,241.177 82.923,241.601 83.300 C 242.078 83.725,242.082 83.696,241.632 83.100 C 240.864 82.086,216.122 82.016,215.734 83.027 M275.465 82.694 C 275.361 82.862,280.825 82.950,287.606 82.889 C 298.449 82.791,299.960 82.853,300.128 83.397 C 300.267 83.848,300.301 83.824,300.254 83.308 C 300.185 82.557,275.922 81.956,275.465 82.694 M123.797 138.400 L 123.800 176.200 135.400 176.200 L 147.000 176.200 147.003 138.500 L 147.006 100.800 146.901 138.400 L 146.796 176.000 135.400 176.000 L 124.004 176.000 123.899 138.300 L 123.794 100.600 123.797 138.400 M245.356 154.922 C 245.314 156.112,245.340 156.137,245.723 155.287 C 245.972 154.733,245.990 154.230,245.767 154.009 C 245.545 153.787,245.382 154.148,245.356 154.922 M146.100 225.887 C 146.705 225.978,147.695 225.978,148.300 225.887 C 148.905 225.795,148.410 225.720,147.200 225.720 C 145.990 225.720,145.495 225.795,146.100 225.887 M152.100 225.887 C 152.705 225.978,153.695 225.978,154.300 225.887 C 154.905 225.795,154.410 225.720,153.200 225.720 C 151.990 225.720,151.495 225.795,152.100 225.887 M104.265 226.694 C 104.161 226.862,109.279 226.950,115.638 226.888 L 127.200 226.776 127.200 231.388 C 127.200 236.180,127.364 236.604,128.638 235.100 L 129.400 234.200 128.514 234.950 L 127.627 235.699 127.514 231.150 L 127.400 226.600 115.927 226.494 C 109.617 226.436,104.369 226.526,104.265 226.694 M251.994 228.826 C 237.774 230.338,226.017 239.534,221.856 252.400 C 218.480 262.840,219.209 275.821,223.703 285.300 C 236.035 311.307,276.986 311.911,290.062 286.278 C 291.245 283.960,292.757 279.690,292.489 279.423 C 291.989 278.922,268.841 279.189,268.421 279.700 C 268.195 279.975,267.423 280.992,266.705 281.959 C 262.807 287.213,253.573 287.953,247.542 283.494 C 245.161 281.733,243.025 277.528,242.721 274.000 L 242.600 272.600 268.182 272.400 L 293.764 272.200 294.118 270.600 C 294.966 266.769,293.987 257.135,292.205 251.786 C 286.867 235.755,271.163 226.788,251.994 228.826 M172.000 234.600 C 172.746 235.370,173.447 236.000,173.557 236.000 C 173.667 236.000,173.146 235.370,172.400 234.600 C 171.654 233.830,170.953 233.200,170.843 233.200 C 170.733 233.200,171.254 233.830,172.000 234.600 M139.000 246.410 C 138.466 246.647,138.798 246.686,140.000 246.527 C 140.990 246.396,141.875 246.224,141.967 246.144 C 142.314 245.843,139.764 246.072,139.000 246.410 M144.433 246.144 C 144.525 246.224,145.410 246.396,146.400 246.527 C 147.602 246.686,147.934 246.647,147.400 246.410 C 146.636 246.072,144.086 245.843,144.433 246.144 M261.316 247.395 C 266.469 248.737,269.866 252.214,270.774 257.074 C 271.266 259.708,271.951 259.587,256.500 259.594 C 240.932 259.601,242.159 259.928,243.445 256.114 C 245.812 249.095,253.480 245.354,261.316 247.395 M154.200 250.800 C 155.283 251.900,156.260 252.800,156.370 252.800 C 156.480 252.800,155.683 251.900,154.600 250.800 C 153.517 249.700,152.540 248.800,152.430 248.800 C 152.320 248.800,153.117 249.700,154.200 250.800 M182.028 254.433 C 182.044 254.965,182.219 255.760,182.419 256.200 C 182.671 256.758,182.707 256.515,182.538 255.400 C 182.255 253.543,181.987 253.036,182.028 254.433 M127.348 264.000 C 127.348 266.310,127.414 267.255,127.495 266.100 C 127.576 264.945,127.576 263.055,127.495 261.900 C 127.414 260.745,127.348 261.690,127.348 264.000 M182.909 264.000 C 182.909 264.990,182.987 265.395,183.082 264.900 C 183.178 264.405,183.178 263.595,183.082 263.100 C 182.987 262.605,182.909 263.010,182.909 264.000 M158.629 269.029 C 158.481 269.615,158.438 270.172,158.532 270.266 C 158.627 270.360,158.824 269.958,158.971 269.371 C 159.119 268.785,159.162 268.228,159.068 268.134 C 158.973 268.040,158.776 268.442,158.629 269.029 M132.000 277.800 C 132.746 278.570,133.447 279.200,133.557 279.200 C 133.667 279.200,133.146 278.570,132.400 277.800 C 131.654 277.030,130.953 276.400,130.843 276.400 C 130.733 276.400,131.254 277.030,132.000 277.800 M142.100 282.287 C 142.705 282.378,143.695 282.378,144.300 282.287 C 144.905 282.195,144.410 282.120,143.200 282.120 C 141.990 282.120,141.495 282.195,142.100 282.287 M171.544 293.807 C 170.083 295.233,169.008 296.400,169.155 296.400 C 169.303 296.400,170.583 295.230,172.000 293.800 C 173.417 292.370,174.492 291.203,174.388 291.207 C 174.285 291.211,173.005 292.381,171.544 293.807 M127.467 292.267 C 127.320 292.413,127.242 302.538,127.293 314.767 L 127.387 337.000 127.593 314.600 C 127.821 289.885,127.833 291.901,127.467 292.267 M146.305 302.683 C 146.802 302.779,147.522 302.775,147.905 302.675 C 148.287 302.575,147.880 302.496,147.000 302.501 C 146.120 302.505,145.807 302.587,146.305 302.683 M152.100 302.676 C 152.485 302.776,153.115 302.776,153.500 302.676 C 153.885 302.575,153.570 302.493,152.800 302.493 C 152.030 302.493,151.715 302.575,152.100 302.676 M109.724 337.099 C 112.983 337.167,118.203 337.166,121.324 337.099 C 124.446 337.031,121.780 336.976,115.400 336.977 C 109.020 336.977,106.466 337.032,109.724 337.099 " stroke="none" fill="#6c6c6c" fill-rule="evenodd"></path><path id="path3" d="M159.328 264.000 C 159.328 265.430,159.401 266.015,159.489 265.300 C 159.578 264.585,159.578 263.415,159.489 262.700 C 159.401 261.985,159.328 262.570,159.328 264.000 M126.893 264.000 C 126.893 264.770,126.975 265.085,127.076 264.700 C 127.176 264.315,127.176 263.685,127.076 263.300 C 126.975 262.915,126.893 263.230,126.893 264.000 M149.100 302.682 C 149.595 302.778,150.405 302.778,150.900 302.682 C 151.395 302.587,150.990 302.509,150.000 302.509 C 149.010 302.509,148.605 302.587,149.100 302.682 " stroke="none" fill="#848484" fill-rule="evenodd"></path><path id="path4" d="M99.380 82.908 C 99.272 83.189,99.232 87.285,99.292 92.010 L 99.400 100.600 111.800 100.609 L 124.200 100.618 111.900 100.503 L 99.600 100.388 99.600 91.594 L 99.600 82.800 135.400 82.800 L 171.200 82.800 171.200 91.594 L 171.200 100.388 158.900 100.494 L 146.600 100.600 146.597 138.300 L 146.594 176.000 146.699 138.406 L 146.804 100.812 159.102 100.706 L 171.400 100.600 171.400 91.600 L 171.400 82.600 135.488 82.498 C 106.604 82.416,99.538 82.496,99.380 82.908 M216.006 83.300 C 216.009 83.575,216.201 84.070,216.432 84.400 C 216.761 84.870,216.797 84.805,216.599 84.100 L 216.346 83.200 228.746 83.200 C 240.945 83.200,241.150 83.213,241.410 84.030 C 241.554 84.487,241.761 84.772,241.869 84.664 C 241.977 84.557,241.864 84.093,241.618 83.634 C 241.070 82.611,215.994 82.283,216.006 83.300 M275.326 83.500 C 275.189 83.885,274.987 84.363,274.877 84.562 C 274.766 84.761,274.884 84.795,275.138 84.638 C 275.392 84.481,275.600 84.093,275.600 83.776 C 275.600 83.287,277.424 83.200,287.643 83.200 L 299.687 83.200 299.431 84.300 C 299.242 85.116,299.280 85.245,299.582 84.800 C 300.933 82.803,300.916 82.800,287.787 82.800 C 276.518 82.800,275.556 82.854,275.326 83.500 M219.267 91.220 C 219.501 91.892,219.767 92.367,219.857 92.276 C 220.056 92.078,219.301 90.000,219.031 90.000 C 218.927 90.000,219.033 90.549,219.267 91.220 M296.467 91.180 C 296.233 91.851,296.127 92.400,296.231 92.400 C 296.501 92.400,297.256 90.322,297.057 90.124 C 296.967 90.033,296.701 90.508,296.467 91.180 M271.244 94.444 C 270.998 95.151,270.866 95.800,270.952 95.885 C 271.038 95.971,271.309 95.462,271.556 94.756 C 271.802 94.049,271.934 93.400,271.848 93.315 C 271.762 93.229,271.491 93.738,271.244 94.444 M246.229 96.800 C 246.376 97.350,246.664 98.070,246.867 98.400 C 247.125 98.817,247.157 98.695,246.971 98.000 C 246.824 97.450,246.536 96.730,246.333 96.400 C 246.075 95.983,246.043 96.105,246.229 96.800 M269.267 99.980 C 269.033 100.651,268.927 101.200,269.031 101.200 C 269.301 101.200,270.056 99.122,269.857 98.924 C 269.767 98.833,269.501 99.308,269.267 99.980 M267.387 105.000 C 267.284 105.330,267.112 105.879,267.005 106.221 C 266.897 106.562,266.966 106.745,267.157 106.627 C 267.348 106.509,267.591 105.959,267.697 105.406 C 267.906 104.313,267.690 104.030,267.387 105.000 M250.467 108.420 C 250.701 109.092,250.967 109.567,251.057 109.476 C 251.256 109.278,250.501 107.200,250.231 107.200 C 250.127 107.200,250.233 107.749,250.467 108.420 M265.244 110.844 C 264.998 111.551,264.866 112.200,264.952 112.285 C 265.038 112.371,265.309 111.862,265.556 111.156 C 265.802 110.449,265.934 109.800,265.848 109.715 C 265.762 109.629,265.491 110.138,265.244 110.844 M256.218 124.100 C 256.368 124.595,256.655 125.176,256.856 125.391 C 257.057 125.606,257.019 125.201,256.772 124.491 C 256.265 123.038,255.797 122.708,256.218 124.100 M282.379 124.255 C 282.158 124.836,282.052 125.385,282.143 125.476 C 282.233 125.567,282.499 125.092,282.733 124.420 C 283.253 122.928,282.939 122.782,282.379 124.255 M259.267 127.180 C 259.033 127.851,258.652 128.400,258.421 128.400 C 258.189 128.400,258.000 128.580,258.000 128.800 C 258.000 129.020,258.189 129.200,258.420 129.200 C 258.865 129.200,260.172 126.438,259.870 126.136 C 259.772 126.039,259.501 126.508,259.267 127.180 M235.267 129.220 C 235.501 129.892,235.767 130.367,235.857 130.276 C 236.056 130.078,235.301 128.000,235.031 128.000 C 234.927 128.000,235.033 128.549,235.267 129.220 M239.018 138.100 C 239.168 138.595,239.455 139.176,239.656 139.391 C 239.857 139.606,239.819 139.201,239.572 138.491 C 239.065 137.038,238.597 136.708,239.018 138.100 M266.379 161.855 C 266.158 162.436,266.052 162.985,266.143 163.076 C 266.233 163.167,266.499 162.692,266.733 162.020 C 267.253 160.528,266.939 160.382,266.379 161.855 M231.267 187.580 C 231.033 188.251,230.927 188.800,231.031 188.800 C 231.301 188.800,232.056 186.722,231.857 186.524 C 231.767 186.433,231.501 186.908,231.267 187.580 M229.400 191.600 C 229.264 191.820,229.264 192.180,229.400 192.400 C 229.690 192.870,253.449 192.967,253.738 192.500 C 253.841 192.335,248.430 192.250,241.715 192.311 C 230.895 192.410,229.532 192.353,229.740 191.811 C 230.004 191.125,229.779 190.986,229.400 191.600 M143.600 226.400 C 142.256 226.831,143.708 226.831,145.400 226.400 C 146.478 226.126,146.498 226.094,145.600 226.087 C 145.050 226.083,144.150 226.224,143.600 226.400 M154.600 226.400 C 156.292 226.831,157.744 226.831,156.400 226.400 C 155.850 226.224,154.950 226.083,154.400 226.087 C 153.502 226.094,153.522 226.126,154.600 226.400 M104.200 227.694 C 104.079 228.192,104.030 252.900,104.090 282.600 L 104.200 336.600 115.600 336.600 L 127.000 336.600 127.103 314.421 C 127.175 299.137,127.341 292.160,127.637 291.977 C 127.911 291.808,127.837 291.623,127.434 291.468 C 126.860 291.248,126.800 293.368,126.800 313.813 L 126.800 336.400 115.599 336.400 L 104.397 336.400 104.499 281.900 L 104.600 227.400 115.600 227.400 L 126.600 227.400 126.713 232.100 C 126.812 236.236,126.908 236.799,127.513 236.794 C 127.990 236.790,128.051 236.693,127.714 236.479 C 127.390 236.273,127.190 234.636,127.114 231.585 L 127.000 227.000 115.709 226.894 L 104.418 226.788 104.200 227.694 M132.600 231.437 L 131.000 232.861 132.600 231.753 C 134.727 230.279,135.045 229.999,134.580 230.006 C 134.371 230.009,133.480 230.653,132.600 231.437 M129.178 234.700 L 127.800 236.200 129.300 234.822 C 130.696 233.538,130.984 233.200,130.678 233.200 C 130.612 233.200,129.937 233.875,129.178 234.700 M170.800 233.725 C 170.800 233.794,171.385 234.379,172.100 235.025 L 173.400 236.200 172.225 234.900 C 171.130 233.688,170.800 233.416,170.800 233.725 M174.383 237.900 C 175.126 238.835,175.806 239.600,175.894 239.600 C 176.177 239.600,174.463 237.349,173.735 236.764 C 173.348 236.454,173.640 236.965,174.383 237.900 M178.028 243.400 C 178.028 243.620,178.286 244.250,178.600 244.800 C 178.914 245.350,179.172 245.620,179.172 245.400 C 179.172 245.180,178.914 244.550,178.600 244.000 C 178.286 243.450,178.028 243.180,178.028 243.400 M141.700 245.891 C 142.525 245.978,143.875 245.978,144.700 245.891 C 145.525 245.805,144.850 245.734,143.200 245.734 C 141.550 245.734,140.875 245.805,141.700 245.891 M133.910 248.315 C 133.091 248.912,132.416 249.566,132.410 249.770 C 132.405 249.973,132.805 249.776,133.300 249.332 C 133.795 248.888,134.645 248.227,135.189 247.862 C 135.733 247.498,136.003 247.207,135.789 247.215 C 135.575 247.223,134.730 247.718,133.910 248.315 M181.256 252.400 C 181.256 252.730,181.411 253.360,181.600 253.800 C 181.817 254.304,181.944 254.378,181.944 254.000 C 181.944 253.670,181.789 253.040,181.600 252.600 C 181.383 252.096,181.256 252.022,181.256 252.400 M182.305 262.000 C 182.481 270.196,182.689 271.255,182.698 264.000 C 182.702 260.810,182.585 257.660,182.439 257.000 C 182.292 256.340,182.232 258.590,182.305 262.000 M127.473 257.353 C 127.323 257.745,127.211 258.366,127.225 258.733 C 127.242 259.175,127.381 259.074,127.637 258.434 C 127.849 257.903,127.961 257.282,127.885 257.054 C 127.809 256.827,127.624 256.961,127.473 257.353 M159.082 259.400 C 159.209 260.500,159.377 261.475,159.456 261.567 C 159.755 261.914,159.528 258.964,159.197 258.200 C 158.974 257.685,158.933 258.113,159.082 259.400 M126.893 261.600 C 126.893 262.370,126.975 262.685,127.076 262.300 C 127.176 261.915,127.176 261.285,127.076 260.900 C 126.975 260.515,126.893 260.830,126.893 261.600 M159.714 263.800 C 159.717 264.900,159.795 265.303,159.887 264.695 C 159.979 264.086,159.977 263.186,159.882 262.695 C 159.787 262.203,159.711 262.700,159.714 263.800 M126.901 266.600 C 126.905 267.480,126.987 267.793,127.083 267.295 C 127.179 266.798,127.175 266.078,127.075 265.695 C 126.975 265.313,126.896 265.720,126.901 266.600 M159.259 267.400 C 159.220 268.060,159.096 269.050,158.983 269.600 L 158.777 270.600 159.208 269.614 C 159.444 269.072,159.568 268.082,159.483 267.414 L 159.328 266.200 159.259 267.400 M127.256 269.600 C 127.256 269.930,127.411 270.560,127.600 271.000 C 127.817 271.504,127.944 271.578,127.944 271.200 C 127.944 270.870,127.789 270.240,127.600 269.800 C 127.383 269.296,127.256 269.222,127.256 269.600 M181.429 274.629 C 181.281 275.215,181.238 275.772,181.332 275.866 C 181.427 275.960,181.624 275.558,181.771 274.971 C 181.919 274.385,181.962 273.828,181.868 273.734 C 181.773 273.640,181.576 274.042,181.429 274.629 M131.686 277.801 C 132.723 278.879,133.633 279.680,133.707 279.581 C 133.781 279.481,132.933 278.599,131.821 277.620 L 129.800 275.840 131.686 277.801 M154.770 277.454 C 154.236 278.034,153.098 279.024,152.240 279.654 C 151.382 280.284,150.879 280.800,151.121 280.800 C 151.571 280.800,156.390 276.441,155.970 276.415 C 155.843 276.407,155.303 276.874,154.770 277.454 M149.000 281.414 C 147.995 281.898,147.963 281.953,148.800 281.751 C 149.350 281.619,149.971 281.350,150.180 281.155 C 150.698 280.671,150.414 280.733,149.000 281.414 M139.915 282.472 C 140.292 282.621,141.770 282.744,143.200 282.744 C 144.630 282.744,146.108 282.621,146.485 282.472 C 146.862 282.322,145.384 282.200,143.200 282.200 C 141.016 282.200,139.538 282.322,139.915 282.472 M174.799 289.700 C 174.210 290.504,174.113 290.784,174.545 290.433 C 175.201 289.900,176.193 288.400,175.889 288.400 C 175.813 288.400,175.322 288.985,174.799 289.700 M171.387 293.700 L 169.000 296.200 171.500 293.813 C 173.822 291.595,174.183 291.200,173.887 291.200 C 173.826 291.200,172.701 292.325,171.387 293.700 M129.600 294.200 C 130.572 295.190,131.442 296.000,131.535 296.000 C 131.873 296.000,128.589 292.474,128.217 292.438 C 128.006 292.417,128.628 293.210,129.600 294.200 M132.033 296.535 C 132.893 297.233,136.000 299.193,136.000 299.038 C 136.000 298.776,132.543 296.400,132.161 296.400 C 131.999 296.400,131.942 296.461,132.033 296.535 M138.400 300.134 C 138.400 300.237,138.981 300.524,139.691 300.772 C 140.401 301.019,140.806 301.057,140.591 300.856 C 140.135 300.429,138.400 299.858,138.400 300.134 M142.600 301.600 C 143.040 301.789,143.670 301.944,144.000 301.944 C 144.378 301.944,144.304 301.817,143.800 301.600 C 143.360 301.411,142.730 301.256,142.400 301.256 C 142.022 301.256,142.096 301.383,142.600 301.600 M156.400 301.600 C 155.596 301.857,155.557 301.923,156.200 301.932 C 156.640 301.938,157.360 301.789,157.800 301.600 C 158.819 301.162,157.768 301.162,156.400 301.600 M148.100 302.294 C 149.145 302.376,150.855 302.376,151.900 302.294 C 152.945 302.212,152.090 302.144,150.000 302.144 C 147.910 302.144,147.055 302.212,148.100 302.294 " stroke="none" fill="#9c9c9c" fill-rule="evenodd"></path></g></svg>